<svg version="1.1" id="Layer_1" xmlns="http://www.w3.org/2000/svg" xmlns:xlink="http://www.w3.org/1999/xlink" x="0px" y="0px"
	 width="100%" viewBox="0 0 300 300" enable-background="new 0 0 300 300" xml:space="preserve">
<path fill="none" opacity="1.000000" stroke="none" 
	d="
M165.000000,301.000000 
	C110.000008,301.000000 55.500019,301.000000 1.000022,301.000000 
	C1.000015,201.000031 1.000015,101.000053 1.000007,1.000062 
	C100.999962,1.000041 200.999924,1.000041 300.999908,1.000021 
	C300.999939,100.999939 300.999939,200.999878 300.999969,300.999908 
	C255.833328,301.000000 210.666672,301.000000 165.000000,301.000000 
M85.184029,186.699783 
	C86.781616,188.513260 88.379204,190.326721 89.834808,193.050873 
	C89.834808,216.279083 89.834808,239.507294 89.834808,262.670898 
	C129.961197,262.670898 169.324585,262.670898 209.017944,262.670898 
	C209.017944,239.512009 209.028778,216.723022 209.006271,193.934067 
	C209.002884,190.504120 207.432419,188.963943 203.287689,189.821045 
	C199.543701,184.353531 194.583084,184.071075 188.268555,189.292130 
	C185.455933,189.331985 182.643311,189.371841 179.699203,188.565018 
	C179.448242,185.701721 179.197266,182.838440 179.889618,180.005569 
	C181.312790,180.005569 182.735962,180.005569 184.265381,180.005569 
	C184.013626,178.046371 183.813477,176.488785 183.536652,174.334534 
	C187.362793,174.078369 190.874527,173.843262 195.897766,173.506943 
	C192.854034,171.067993 190.871078,169.479034 189.273148,167.265274 
	C197.939560,164.275681 206.565567,160.959457 212.237930,153.339890 
	C215.434753,149.045700 217.524124,143.927063 221.033783,139.236374 
	C227.840988,139.236374 234.648209,139.236374 241.455414,139.236374 
	C241.447845,138.704010 241.440262,138.171646 241.432693,137.639282 
	C234.389053,137.639282 227.345428,137.639282 220.472458,136.942368 
	C221.055023,126.597443 221.637604,116.252518 222.351852,105.055992 
	C221.959061,103.095490 221.566284,101.134979 222.049332,99.081680 
	C224.053009,98.595993 226.056702,98.110306 229.094666,97.373909 
	C226.130478,93.729858 224.040222,90.585472 221.382843,88.031090 
	C217.613388,84.407776 213.426208,81.219055 209.664215,77.024590 
	C211.700439,69.191460 210.639862,61.502663 208.721481,53.814804 
	C207.897675,50.513439 206.177719,48.764462 202.718323,49.736748 
	C197.772766,51.126732 192.883545,52.717251 187.298874,53.952282 
	C184.881821,48.734295 181.714737,44.702251 175.786346,42.608421 
	C159.977142,37.024815 143.971268,37.751835 128.033096,40.770977 
	C120.791908,42.142662 113.337730,44.778893 111.229164,53.670174 
	C111.066132,54.357643 109.770782,54.776585 108.295128,55.036160 
	C102.631020,53.239212 97.019402,51.228653 91.261375,49.813950 
	C90.013367,49.507320 87.304848,51.002842 86.857399,52.241890 
	C83.569603,61.346313 82.671219,70.638786 86.023239,80.482941 
	C86.037109,80.652779 86.050972,80.822609 85.406235,81.206421 
	C78.462135,84.843094 73.639801,90.437492 69.788582,97.404198 
	C72.205276,98.239357 74.066544,98.882568 75.543610,100.155281 
	C75.392105,101.101547 75.240601,102.047821 74.865280,103.640671 
	C74.899979,104.089767 74.934677,104.538872 74.648209,105.744034 
	C75.033997,114.128471 75.120834,122.541725 75.924843,130.885864 
	C76.362518,135.428192 77.049927,140.454132 79.364471,144.181717 
	C82.379387,149.037247 87.120903,152.820709 91.177818,157.792664 
	C89.413277,160.639893 87.648735,163.487106 85.234451,166.135071 
	C78.105965,165.330307 76.521156,167.965897 78.733093,176.080215 
	C77.717857,177.358917 76.641617,178.594345 75.698479,179.924179 
	C72.463837,184.485046 73.078773,186.241287 78.071815,189.021622 
	C81.867134,191.135010 82.799637,187.559799 85.184029,186.699783 
M243.506500,139.474304 
	C243.506500,139.474304 243.508377,139.513214 243.506500,139.474304 
z"/>
<path fill="#C2986B" opacity="1.000000" stroke="none" 
	d="
M209.417542,77.844604 
	C213.426208,81.219055 217.613388,84.407776 221.382843,88.031090 
	C224.040222,90.585472 226.130478,93.729858 229.094666,97.373909 
	C226.056702,98.110306 224.053009,98.595993 221.240082,99.095901 
	C193.260086,103.071121 165.908691,103.876656 138.162079,103.797180 
	C136.878647,103.833618 135.939941,103.872757 134.751587,103.904465 
	C134.501968,103.897026 134.004410,103.942604 133.923981,103.801186 
	C133.843552,103.659767 133.427795,103.558754 133.427795,103.558754 
	C133.427795,103.558754 133.187592,103.926147 132.754852,103.924072 
	C124.577332,103.594582 116.832527,103.267174 108.769569,102.702911 
	C106.010727,102.302391 103.570045,102.138733 100.700218,101.943253 
	C92.500801,101.069244 84.730537,100.227074 76.692413,99.348755 
	C76.258980,99.383667 76.093391,99.454727 75.927811,99.525787 
	C74.066544,98.882568 72.205276,98.239357 69.788582,97.404198 
	C73.639801,90.437492 78.462135,84.843094 86.155266,81.110764 
	C99.843246,81.929619 112.792778,83.719353 125.718781,83.563087 
	C147.668167,83.297737 169.610657,81.949059 191.538193,80.733505 
	C197.337509,80.412018 203.071533,78.912575 208.967560,77.854996 
	C209.099594,77.755966 209.417542,77.844604 209.417542,77.844604 
z"/>
<path fill="#C2986B" opacity="1.000000" stroke="none" 
	d="
M109.001724,55.320335 
	C109.770782,54.776585 111.066132,54.357643 111.229164,53.670174 
	C113.337730,44.778893 120.791908,42.142662 128.033096,40.770977 
	C143.971268,37.751835 159.977142,37.024815 175.786346,42.608421 
	C181.714737,44.702251 184.881821,48.734295 187.615250,54.437141 
	C190.679626,58.276077 193.427643,61.630161 195.889893,65.311287 
	C165.676193,65.417801 135.748215,65.204109 105.820724,64.935486 
	C105.104912,64.929054 104.394623,64.308746 103.927742,63.723923 
	C105.783058,60.755497 107.392387,58.037914 109.001724,55.320335 
M129.563614,56.769043 
	C129.778168,56.240597 129.992737,55.712151 130.868698,54.977715 
	C132.463623,52.116074 134.058563,49.254429 135.653503,46.392788 
	C135.248917,46.172569 134.844330,45.952351 134.439743,45.732136 
	C134.081528,46.247360 133.645203,46.725315 133.378510,47.284214 
	C132.176376,49.803528 131.022308,52.345779 129.397858,55.255825 
	C129.231689,55.807327 129.065521,56.358826 128.443054,57.098309 
	C128.156509,57.301880 127.986511,57.577408 127.414108,57.934044 
	C127.193878,58.174805 126.973648,58.415565 126.753426,58.656326 
	C127.191330,58.457016 127.629234,58.257706 128.525024,57.880547 
	C128.811966,57.687080 128.995544,57.422009 129.563614,56.769043 
z"/>
<path fill="#3C2514" opacity="1.000000" stroke="none" 
	d="
M103.681755,63.974766 
	C104.394623,64.308746 105.104912,64.929054 105.820724,64.935486 
	C135.748215,65.204109 165.676193,65.417801 196.178238,65.457092 
	C200.780090,69.501907 204.807816,73.727959 208.835541,77.954018 
	C203.071533,78.912575 197.337509,80.412018 191.538193,80.733505 
	C169.610657,81.949059 147.668167,83.297737 125.718781,83.563087 
	C112.792778,83.719353 99.843246,81.929619 86.484558,81.003784 
	C86.050972,80.822609 86.037109,80.652779 86.405212,80.185516 
	C92.418716,74.583656 98.050232,69.279213 103.681755,63.974766 
z"/>
<path fill="#070605" opacity="1.000000" stroke="none" 
	d="
M222.220169,105.907593 
	C221.637604,116.252518 221.055023,126.597443 220.305206,137.671707 
	C220.129410,138.660629 220.120895,138.920212 220.112366,139.179794 
	C217.524124,143.927063 215.434753,149.045700 212.237930,153.339890 
	C206.565567,160.959457 197.939560,164.275681 188.657288,167.516846 
	C183.490433,168.504990 178.961914,169.465332 174.383118,169.925323 
	C167.628448,170.603897 162.297058,173.828598 157.213776,178.570023 
	C152.014648,179.280685 147.157593,181.555786 142.265839,178.124588 
	C137.414551,175.258163 132.951324,171.977661 127.950729,170.280594 
	C122.551788,168.448334 116.650368,168.096649 110.620842,166.979691 
	C107.511139,165.755737 104.748734,164.651230 101.936447,163.190735 
	C101.383705,161.540497 100.880836,160.246231 100.605995,158.640198 
	C102.245132,158.180008 103.782425,157.597824 105.043617,157.964706 
	C108.790123,159.054642 112.427948,160.518112 116.501068,161.933105 
	C138.793747,166.675461 160.815155,166.709930 182.713821,162.621048 
	C195.505066,160.232666 202.330704,151.321671 204.376556,138.448242 
	C206.342117,126.079872 202.033768,116.713165 193.003433,109.170593 
	C203.067047,108.039711 212.643616,106.973656 222.220169,105.907593 
z"/>
<path fill="#6D6E70" opacity="1.000000" stroke="none" 
	d="
M179.830688,189.411697 
	C182.643311,189.371841 185.455933,189.331985 188.999603,189.348236 
	C190.437561,191.569382 191.144470,193.734406 191.395203,195.920929 
	C159.975494,195.951080 129.011673,196.023239 98.048752,195.888260 
	C94.166214,195.871338 92.897842,196.869064 92.947105,200.898361 
	C93.160789,218.375214 93.159622,235.857590 92.953369,253.334610 
	C92.901901,257.695709 94.244469,259.078400 98.643753,259.058197 
	C132.103714,258.904388 165.565063,258.900543 199.024963,259.060944 
	C203.536148,259.082550 205.142899,257.891388 205.065857,253.169235 
	C204.802551,237.025848 204.990143,220.875397 204.925659,204.727966 
	C204.919373,203.152969 204.360779,201.580185 204.084839,199.555237 
	C204.046417,196.110825 203.981705,193.117554 203.917007,190.124268 
	C207.432419,188.963943 209.002884,190.504120 209.006271,193.934067 
	C209.028778,216.723022 209.017944,239.512009 209.017944,262.670898 
	C169.324585,262.670898 129.961197,262.670898 89.834808,262.670898 
	C89.834808,239.507294 89.834808,216.279083 90.025200,192.238556 
	C91.814888,190.924927 93.414177,190.423645 95.470016,189.909821 
	C99.278976,189.824020 102.631378,189.750778 106.397629,189.764526 
	C108.212891,189.796036 109.614304,189.740570 111.477547,189.756561 
	C118.989265,189.800262 126.039146,189.772522 133.390045,189.812439 
	C134.097794,189.838974 134.504532,189.797852 135.317352,189.802521 
	C136.805542,189.785919 137.887634,189.723541 139.369812,189.732742 
	C141.925980,189.599716 144.082230,189.218231 146.238159,189.220169 
	C157.435715,189.230179 168.633194,189.337967 179.830688,189.411697 
z"/>
<path fill="#060606" opacity="1.000000" stroke="none" 
	d="
M91.119415,157.065491 
	C87.120903,152.820709 82.379387,149.037247 79.364471,144.181717 
	C77.049927,140.454132 76.362518,135.428192 75.924843,130.885864 
	C75.120834,122.541725 75.033997,114.128471 75.151581,105.537529 
	C77.478928,105.885895 79.270691,106.613579 81.133385,106.960754 
	C85.410179,107.757851 89.721542,108.369537 93.879532,109.367340 
	C83.940086,123.734642 84.721085,138.492661 96.078995,151.459030 
	C97.600204,153.195663 98.725792,154.498947 95.716263,155.874084 
	C93.984360,156.201584 92.551888,156.633545 91.119415,157.065491 
z"/>
<path fill="#060605" opacity="1.000000" stroke="none" 
	d="
M103.927742,63.723923 
	C98.050232,69.279213 92.418716,74.583656 86.452095,79.934250 
	C82.671219,70.638786 83.569603,61.346313 86.857399,52.241890 
	C87.304848,51.002842 90.013367,49.507320 91.261375,49.813950 
	C97.019402,51.228653 102.631020,53.239212 108.648422,55.178246 
	C107.392387,58.037914 105.783058,60.755497 103.927742,63.723923 
z"/>
<path fill="#BC956A" opacity="1.000000" stroke="none" 
	d="
M179.764954,188.988358 
	C168.633194,189.337967 157.435715,189.230179 146.238159,189.220169 
	C144.082230,189.218231 141.925980,189.599716 139.315689,189.382675 
	C138.239151,185.670425 137.616791,182.379837 137.447647,179.040497 
	C139.406326,178.797073 140.911804,178.602432 142.417267,178.407776 
	C147.157593,181.555786 152.014648,179.280685 157.689362,178.738403 
	C165.344681,179.164139 172.145477,179.569641 178.946289,179.975143 
	C179.197266,182.838440 179.448242,185.701721 179.764954,188.988358 
z"/>
<path fill="#080A12" opacity="1.000000" stroke="none" 
	d="
M222.286011,105.481796 
	C212.643616,106.973656 203.067047,108.039711 192.670029,109.132629 
	C190.567932,108.772621 189.286316,108.385750 187.724289,107.734840 
	C181.993500,107.045074 176.540161,106.236946 171.093369,106.278816 
	C161.773270,106.350433 152.457260,106.954208 142.793030,107.199966 
	C141.133270,105.976906 139.820023,104.888390 138.506790,103.799881 
	C165.908691,103.876656 193.260086,103.071121 220.802185,99.142303 
	C221.566284,101.134979 221.959061,103.095490 222.286011,105.481796 
z"/>
<path fill="#070707" opacity="1.000000" stroke="none" 
	d="
M208.967560,77.854996 
	C204.807816,73.727959 200.780090,69.501907 196.464005,65.130051 
	C193.427643,61.630161 190.679626,58.276077 187.950958,54.572067 
	C192.883545,52.717251 197.772766,51.126732 202.718323,49.736748 
	C206.177719,48.764462 207.897675,50.513439 208.721481,53.814804 
	C210.639862,61.502663 211.700439,69.191460 209.540878,77.434601 
	C209.417542,77.844604 209.099594,77.755966 208.967560,77.854996 
z"/>
<path fill="#7A522F" opacity="1.000000" stroke="none" 
	d="
M179.417953,179.990356 
	C172.145477,179.569641 165.344681,179.164139 158.068268,178.590271 
	C162.297058,173.828598 167.628448,170.603897 174.383118,169.925323 
	C178.961914,169.465332 183.490433,168.504990 188.464783,167.829254 
	C190.871078,169.479034 192.854034,171.067993 195.897766,173.506943 
	C190.874527,173.843262 187.362793,174.078369 183.536652,174.334534 
	C183.813477,176.488785 184.013626,178.046371 184.265381,180.005569 
	C182.735962,180.005569 181.312790,180.005569 179.417953,179.990356 
z"/>
<path fill="#040405" opacity="1.000000" stroke="none" 
	d="
M203.602356,189.972656 
	C203.981705,193.117554 204.046417,196.110825 203.796234,199.732635 
	C201.624481,202.676086 200.013657,205.274811 197.807861,207.187271 
	C196.689651,208.156754 194.049072,208.641693 192.917114,207.967758 
	C191.776810,207.288834 191.253860,204.920395 191.178497,203.259644 
	C191.067841,200.821442 191.595596,198.354263 191.851349,195.899429 
	C191.144470,193.734406 190.437561,191.569382 189.451263,189.210815 
	C194.583084,184.071075 199.543701,184.353531 203.602356,189.972656 
z"/>
<path fill="#090B12" opacity="1.000000" stroke="none" 
	d="
M94.018867,109.056488 
	C89.721542,108.369537 85.410179,107.757851 81.133385,106.960754 
	C79.270691,106.613579 77.478928,105.885895 75.312164,105.159500 
	C74.934677,104.538872 74.899979,104.089767 75.350998,103.239799 
	C76.211227,101.687584 76.585747,100.536247 76.960266,99.384903 
	C84.730537,100.227074 92.500801,101.069244 100.614838,102.278015 
	C98.645363,104.781898 96.332115,106.919197 94.018867,109.056488 
z"/>
<path fill="#080807" opacity="1.000000" stroke="none" 
	d="
M79.417053,175.809586 
	C76.521156,167.965897 78.105965,165.330307 85.626953,166.555206 
	C88.410591,168.695236 90.801727,170.415115 93.154877,172.478470 
	C94.504990,175.159439 96.552216,177.591995 91.738747,179.074539 
	C90.000122,179.160080 88.733597,179.274109 87.118225,179.342957 
	C84.318604,178.135040 81.867828,176.972305 79.417053,175.809586 
z"/>
<path fill="#885E3C" opacity="1.000000" stroke="none" 
	d="
M93.192871,172.134995 
	C90.801727,170.415115 88.410591,168.695236 85.951820,166.654846 
	C87.648735,163.487106 89.413277,160.639893 91.148621,157.429077 
	C92.551888,156.633545 93.984360,156.201584 95.879974,156.135712 
	C97.688072,157.318512 99.033020,158.135239 100.377960,158.951965 
	C100.880836,160.246231 101.383705,161.540497 101.583145,163.302582 
	C98.584099,166.558594 95.888489,169.346802 93.192871,172.134995 
z"/>
<path fill="#885E3C" opacity="1.000000" stroke="none" 
	d="
M79.075073,175.944901 
	C81.867828,176.972305 84.318604,178.135040 87.193420,179.648438 
	C86.692406,182.041901 85.767357,184.084702 84.842300,186.127487 
	C82.799637,187.559799 81.867134,191.135010 78.071815,189.021622 
	C73.078773,186.241287 72.463837,184.485046 75.698479,179.924179 
	C76.641617,178.594345 77.717857,177.358917 79.075073,175.944901 
z"/>
<path fill="#1B1C1A" opacity="1.000000" stroke="none" 
	d="
M85.013168,186.413635 
	C85.767357,184.084702 86.692406,182.041901 87.542267,179.693619 
	C88.733597,179.274109 90.000122,179.160080 91.729973,179.333130 
	C91.884293,179.915741 91.575287,180.211288 91.087585,180.643250 
	C90.916534,180.979492 90.924171,181.179321 90.931816,181.379150 
	C91.118088,181.162766 91.304359,180.946381 91.791313,180.529358 
	C93.454315,181.503082 94.816635,182.677444 96.191521,184.255554 
	C95.807220,186.413635 95.410347,188.167999 95.013466,189.922363 
	C93.414177,190.423645 91.814888,190.924927 90.096191,191.783203 
	C88.379204,190.326721 86.781616,188.513260 85.013168,186.413635 
z"/>
<path fill="#4E4E4E" opacity="1.000000" stroke="none" 
	d="
M220.573074,139.208084 
	C220.120895,138.920212 220.129410,138.660629 220.219864,138.020172 
	C227.345428,137.639282 234.389053,137.639282 241.432693,137.639282 
	C241.440262,138.171646 241.447845,138.704010 241.455414,139.236374 
	C234.648209,139.236374 227.840988,139.236374 220.573074,139.208084 
z"/>
<path fill="#060606" opacity="1.000000" stroke="none" 
	d="
M76.692413,99.348755 
	C76.585747,100.536247 76.211227,101.687584 75.462906,102.916504 
	C75.240601,102.047821 75.392105,101.101547 75.735710,99.840530 
	C76.093391,99.454727 76.258980,99.383667 76.692413,99.348755 
z"/>
<path fill="#4E4E4E" opacity="1.000000" stroke="none" 
	d="
M243.507446,139.493759 
	C243.508377,139.513214 243.506500,139.474304 243.507446,139.493759 
z"/>
<path fill="#6F7073" opacity="1.000000" stroke="none" 
	d="
M100.606003,158.640198 
	C99.033020,158.135239 97.688072,157.318512 96.179413,156.240158 
	C98.725792,154.498947 97.600204,153.195663 96.078995,151.459030 
	C84.721085,138.492661 83.940086,123.734642 93.879532,109.367340 
	C96.332115,106.919197 98.645363,104.781898 101.043991,102.309837 
	C103.570045,102.138733 106.010727,102.302391 108.389420,102.730759 
	C105.551277,104.339783 102.775131,105.684090 99.741562,107.197144 
	C98.653572,108.489311 97.823006,109.612732 96.770821,110.903740 
	C96.358910,111.380363 96.168617,111.689407 95.990829,111.999084 
	C96.003342,111.999718 95.990372,111.978035 95.729721,112.135201 
	C95.304115,112.862823 95.139168,113.433281 94.989510,114.003258 
	C95.004799,114.002777 94.993004,113.974556 94.725449,114.125648 
	C94.296745,114.851921 94.135597,115.427109 93.989487,116.003510 
	C94.004539,116.004738 93.998940,115.975067 93.754730,116.058037 
	C93.332176,116.427353 93.153839,116.713699 92.989639,117.000916 
	C93.003784,117.001793 92.992546,116.975754 92.737930,117.139587 
	C92.313110,117.871758 92.142914,118.440094 91.989899,119.006638 
	C92.007072,119.004837 91.996300,118.972031 91.721596,119.206451 
	C91.289879,120.629013 91.132858,121.817154 90.990128,123.004051 
	C91.004417,123.002808 90.992188,122.976883 90.689758,123.261978 
	C90.589043,127.705780 90.790741,131.864487 90.998238,136.010071 
	C91.004036,135.996948 90.975311,135.995712 90.968231,136.338821 
	C91.305237,137.463257 91.649315,138.244583 91.999207,139.011307 
	C92.005013,138.996704 91.973595,138.995331 91.984962,139.301559 
	C92.328423,140.080292 92.660515,140.552780 92.995613,141.010345 
	C92.998619,140.995407 92.971245,141.009247 92.966293,141.349854 
	C93.550819,142.503479 94.140297,143.316498 94.855423,144.450455 
	C106.791893,162.195465 131.423859,162.051926 142.819046,144.492630 
	C150.131088,133.225235 148.010071,116.457825 138.277924,109.356453 
	C137.097885,108.205727 136.053314,107.362541 135.007553,106.194244 
	C135.004654,105.216721 135.002930,104.564308 135.001221,103.911896 
	C135.939941,103.872757 136.878647,103.833618 138.162079,103.797180 
	C139.820023,104.888390 141.133270,105.976906 142.785385,107.483978 
	C143.641098,108.603157 144.157913,109.303772 144.776657,110.360077 
	C146.809723,116.634132 149.700546,122.445839 150.373932,128.504013 
	C150.930862,133.514587 148.869110,138.816223 147.986908,143.996567 
	C148.006165,144.004227 148.009628,143.962204 147.681000,144.003632 
	C147.056580,144.372910 146.760773,144.700775 146.294998,145.186508 
	C145.783340,145.835358 145.441650,146.326340 144.969131,147.141510 
	C140.210037,154.065765 133.951645,158.298737 126.116180,160.094070 
	C122.820236,160.849274 119.446587,161.265350 116.108261,161.835571 
	C112.427948,160.518112 108.790123,159.054642 105.043617,157.964706 
	C103.782425,157.597824 102.245132,158.180008 100.606003,158.640198 
z"/>
<path fill="#63737D" opacity="1.000000" stroke="none" 
	d="
M99.998978,107.028397 
	C102.775131,105.684090 105.551277,104.339783 108.707581,102.967621 
	C116.832527,103.267174 124.577332,103.594582 132.957764,103.935822 
	C133.593384,103.949646 134.004410,103.942604 134.004410,103.942604 
	C134.004410,103.942604 134.501968,103.897026 134.751587,103.904457 
	C135.002930,104.564308 135.004654,105.216721 134.590088,106.321205 
	C132.710861,106.659096 131.235611,106.363914 129.787033,106.462067 
	C123.516220,106.886940 117.253189,107.426773 110.615097,107.959984 
	C107.237801,109.564995 104.232727,111.134811 101.169449,112.256424 
	C100.740494,110.214951 100.369736,108.621666 99.998978,107.028397 
z"/>
<path fill="#6E635A" opacity="1.000000" stroke="none" 
	d="
M133.923981,103.801186 
	C134.004410,103.942604 133.593384,103.949646 133.390488,103.937897 
	C133.187592,103.926147 133.427795,103.558754 133.427795,103.558754 
	C133.427795,103.558754 133.843552,103.659767 133.923981,103.801186 
z"/>
<path fill="#996D47" opacity="1.000000" stroke="none" 
	d="
M129.850906,54.879765 
	C131.022308,52.345779 132.176376,49.803528 133.378510,47.284214 
	C133.645203,46.725315 134.081528,46.247360 134.439743,45.732136 
	C134.844330,45.952351 135.248917,46.172569 135.653503,46.392788 
	C134.058563,49.254429 132.463623,52.116074 130.449371,55.004173 
	C130.030060,55.030632 129.850906,54.879765 129.850906,54.879765 
z"/>
<path fill="#996D47" opacity="1.000000" stroke="none" 
	d="
M128.067139,58.058395 
	C127.629234,58.257706 127.191330,58.457016 126.753426,58.656326 
	C126.973648,58.415565 127.193878,58.174805 127.705658,57.964302 
	C127.997200,57.994560 128.067139,58.058399 128.067139,58.058395 
z"/>
<path fill="#996D47" opacity="1.000000" stroke="none" 
	d="
M130.118683,55.107170 
	C129.992737,55.712151 129.778168,56.240597 129.276459,56.880836 
	C128.989288,56.992626 128.899353,56.910324 128.899353,56.910324 
	C129.065521,56.358826 129.231689,55.807327 129.624390,55.067795 
	C129.850906,54.879765 130.030060,55.030632 130.118683,55.107170 
z"/>
<path fill="#996D47" opacity="1.000000" stroke="none" 
	d="
M127.965134,57.959728 
	C127.986511,57.577408 128.156509,57.301880 128.671204,57.004318 
	C128.899353,56.910324 128.989288,56.992626 129.032532,57.038979 
	C128.995544,57.422009 128.811966,57.687080 128.296082,57.969475 
	C128.067139,58.058399 127.997200,57.994560 127.965134,57.959728 
z"/>
<path fill="#F1C7AF" opacity="1.000000" stroke="none" 
	d="
M116.501068,161.933105 
	C119.446587,161.265350 122.820236,160.849274 126.116180,160.094070 
	C133.951645,158.298737 140.210037,154.065765 145.265411,147.358078 
	C147.179611,148.153397 148.617340,149.177231 150.207886,149.826965 
	C150.442474,149.922791 152.068405,147.653214 151.918488,147.484589 
	C150.758469,146.179840 149.319916,145.122726 147.967651,143.988907 
	C148.869110,138.816223 150.930862,133.514587 150.373932,128.504013 
	C149.700546,122.445839 146.809723,116.634132 145.277130,110.362259 
	C157.902359,109.993935 170.130280,110.062546 182.354340,109.876793 
	C184.246872,109.848038 186.121674,108.654022 188.004684,107.998886 
	C189.286316,108.385750 190.567932,108.772621 192.182968,109.197456 
	C202.033768,116.713165 206.342117,126.079872 204.376556,138.448242 
	C202.330704,151.321671 195.505066,160.232666 182.713821,162.621048 
	C160.815155,166.709930 138.793747,166.675461 116.501068,161.933105 
M173.486069,131.978607 
	C170.730133,132.422623 167.974213,132.866638 165.218277,133.310654 
	C165.328461,133.938934 165.438660,134.567230 165.548859,135.195511 
	C173.620270,134.216934 181.691696,133.238373 189.763123,132.259796 
	C189.678009,131.496964 189.592896,130.734116 189.507797,129.971283 
	C184.459427,130.619705 179.411072,131.268143 173.486069,131.978607 
M144.639053,158.017441 
	C150.455811,161.170532 155.217834,159.192673 155.309448,152.838028 
	C151.404831,158.954865 147.179764,158.226898 142.717880,153.143616 
	C142.564178,153.621384 142.410492,154.099152 142.256790,154.576904 
	C142.867828,155.565186 143.478882,156.553467 144.639053,158.017441 
z"/>
<path fill="#F9F7F6" opacity="1.000000" stroke="none" 
	d="
M96.178947,183.851807 
	C94.816635,182.677444 93.454315,181.503082 91.724220,180.484619 
	C91.356445,180.640533 91.266273,180.506836 91.266281,180.506836 
	C91.575287,180.211288 91.884293,179.915741 92.202080,179.361603 
	C96.552216,177.591995 94.504990,175.159439 93.154877,172.478470 
	C95.888489,169.346802 98.584099,166.558594 101.633018,163.658554 
	C104.748734,164.651230 107.511139,165.755737 110.501007,167.293060 
	C108.938591,169.299866 107.148720,170.873901 104.364037,173.322754 
	C109.550674,173.724289 113.098419,173.998932 117.009659,174.301727 
	C116.495789,176.525101 116.117874,178.160217 115.703476,179.953232 
	C117.465942,179.953232 118.774963,179.953232 120.143318,180.342560 
	C119.730858,186.565887 114.490509,185.702133 110.581253,187.227249 
	C108.780899,187.211487 107.393478,187.256470 105.639282,187.185333 
	C102.241310,185.996735 99.210129,184.924271 96.178947,183.851807 
z"/>
<path fill="#7A512E" opacity="1.000000" stroke="none" 
	d="
M120.083977,179.953232 
	C118.774963,179.953232 117.465942,179.953232 115.703476,179.953232 
	C116.117874,178.160217 116.495789,176.525101 117.009659,174.301727 
	C113.098419,173.998932 109.550674,173.724289 104.364037,173.322754 
	C107.148720,170.873901 108.938591,169.299866 110.848305,167.412476 
	C116.650368,168.096649 122.551788,168.448334 127.950729,170.280594 
	C132.951324,171.977661 137.414551,175.258163 142.265839,178.124588 
	C140.911804,178.602432 139.406326,178.797073 136.993347,178.997849 
	C130.751892,179.320389 125.417931,179.636810 120.083977,179.953232 
z"/>
<path fill="#414141" opacity="1.000000" stroke="none" 
	d="
M191.395203,195.920929 
	C191.595596,198.354263 191.067841,200.821442 191.178497,203.259644 
	C191.253860,204.920395 191.776810,207.288834 192.917114,207.967758 
	C194.049072,208.641693 196.689651,208.156754 197.807861,207.187271 
	C200.013657,205.274811 201.624481,202.676086 203.769958,200.183777 
	C204.360779,201.580185 204.919373,203.152969 204.925659,204.727966 
	C204.990143,220.875397 204.802551,237.025848 205.065857,253.169235 
	C205.142899,257.891388 203.536148,259.082550 199.024963,259.060944 
	C165.565063,258.900543 132.103714,258.904388 98.643753,259.058197 
	C94.244469,259.078400 92.901901,257.695709 92.953369,253.334610 
	C93.159622,235.857590 93.160789,218.375214 92.947105,200.898361 
	C92.897842,196.869064 94.166214,195.871338 98.048752,195.888260 
	C129.011673,196.023239 159.975494,195.951080 191.395203,195.920929 
M177.337311,221.150162 
	C180.373596,223.268433 183.409866,225.386719 187.097748,227.959595 
	C179.148849,233.255234 172.097595,237.918091 165.087997,242.642700 
	C162.814713,244.174942 159.489380,245.532608 161.716019,249.130722 
	C163.889648,252.643173 166.494476,250.681061 168.940521,249.059433 
	C177.532425,243.363312 186.182861,237.755096 194.750839,232.023483 
	C199.143967,229.084641 199.205399,226.616043 194.847321,223.659088 
	C186.042725,217.685196 177.226944,211.712570 168.164703,206.148331 
	C166.606781,205.191757 163.807159,206.257523 161.581100,206.389114 
	C162.330566,208.332504 162.530273,210.957306 163.933945,212.089767 
	C167.931244,215.314682 172.419113,217.931519 177.337311,221.150162 
M127.499756,238.002106 
	C122.616791,234.706863 117.733826,231.411621 112.332733,227.766708 
	C120.288406,222.477203 127.512680,217.752869 134.640533,212.887283 
	C136.807480,211.408112 140.361298,210.227493 137.943527,206.466431 
	C135.692535,202.964767 133.215393,204.854111 130.755005,206.493942 
	C122.043221,212.300201 113.272675,218.018234 104.553711,223.813812 
	C101.021683,226.161575 100.637749,229.010834 104.018616,231.338120 
	C113.461685,237.838455 123.051956,244.134445 132.773575,250.207855 
	C133.901642,250.912582 136.220322,249.711533 137.987015,249.394028 
	C137.587875,247.678177 137.749466,245.349091 136.677597,244.368973 
	C134.129578,242.039093 130.997787,240.347687 127.499756,238.002106 
z"/>
<path fill="#BE986D" opacity="1.000000" stroke="none" 
	d="
M120.143318,180.342560 
	C125.417931,179.636810 130.751892,179.320389 136.540131,179.046600 
	C137.616791,182.379837 138.239151,185.670425 138.915619,189.311081 
	C137.887634,189.723541 136.805542,189.785919 135.175705,189.628937 
	C134.114990,189.521286 133.602020,189.633026 133.089035,189.744781 
	C126.039146,189.772522 118.989265,189.800262 111.472443,189.461639 
	C111.001740,188.492828 110.997971,187.890411 110.994202,187.287994 
	C114.490509,185.702133 119.730858,186.565887 120.143318,180.342560 
z"/>
<path fill="#BE986D" opacity="1.000000" stroke="none" 
	d="
M96.191521,184.255539 
	C99.210129,184.924271 102.241310,185.996735 105.638863,187.484451 
	C105.998085,188.492310 105.990936,189.084930 105.983788,189.677536 
	C102.631378,189.750778 99.278976,189.824020 95.470016,189.909805 
	C95.410347,188.167999 95.807220,186.413635 96.191521,184.255539 
z"/>
<path fill="#BC956A" opacity="1.000000" stroke="none" 
	d="
M106.397629,189.764526 
	C105.990936,189.084930 105.998085,188.492310 106.005646,187.600586 
	C107.393478,187.256470 108.780899,187.211487 110.581253,187.227249 
	C110.997971,187.890411 111.001740,188.492828 111.010620,189.390167 
	C109.614304,189.740570 108.212891,189.796036 106.397629,189.764526 
z"/>
<path fill="#BC956A" opacity="1.000000" stroke="none" 
	d="
M133.390045,189.812424 
	C133.602020,189.633026 134.114990,189.521286 134.769623,189.583145 
	C134.504532,189.797852 134.097794,189.838974 133.390045,189.812424 
z"/>
<path fill="#C7AA9D" opacity="1.000000" stroke="none" 
	d="
M187.724289,107.734848 
	C186.121674,108.654022 184.246872,109.848038 182.354340,109.876793 
	C170.130280,110.062546 157.902359,109.993935 145.175232,110.006561 
	C144.157913,109.303772 143.641098,108.603157 143.131897,107.618530 
	C152.457260,106.954208 161.773270,106.350433 171.093369,106.278816 
	C176.540161,106.236946 181.993500,107.045074 187.724289,107.734848 
z"/>
<path fill="#080807" opacity="1.000000" stroke="none" 
	d="
M91.423538,180.685272 
	C91.304359,180.946381 91.118088,181.162766 90.931816,181.379150 
	C90.924171,181.179321 90.916534,180.979492 91.087585,180.643250 
	C91.266273,180.506836 91.356445,180.640533 91.423538,180.685272 
z"/>
<path fill="#DCD9D5" opacity="1.000000" stroke="none" 
	d="
M101.227654,112.704628 
	C104.232727,111.134811 107.237801,109.564995 110.770752,108.238602 
	C112.221329,109.010582 113.144028,109.539131 113.999588,110.396469 
	C100.551468,121.294365 101.444244,136.579468 106.761589,146.431046 
	C112.768715,157.560593 124.301033,157.999969 130.769470,147.276611 
	C135.283463,139.793320 136.102844,131.410553 132.935745,123.428604 
	C131.009064,118.572845 126.980461,114.551086 124.366028,110.103592 
	C129.361786,109.922989 133.887573,109.793488 138.413361,109.663986 
	C148.010071,116.457825 150.131088,133.225235 142.819046,144.492630 
	C131.423859,162.051926 106.791893,162.195465 94.948929,144.117783 
	C94.674911,142.643784 94.433029,141.823410 94.156921,140.574860 
	C91.562119,129.723206 94.168739,120.637550 101.227654,112.704628 
M139.550522,120.165634 
	C140.662903,125.372787 141.775284,130.579941 142.853104,135.625275 
	C145.514679,129.766678 143.328369,124.054771 141.092255,118.346764 
	C140.480026,118.724060 139.867813,119.101364 139.550522,120.165634 
z"/>
<path fill="#707F86" opacity="1.000000" stroke="none" 
	d="
M101.169449,112.256424 
	C94.168739,120.637550 91.562119,129.723206 93.851334,140.569489 
	C93.377068,140.997910 93.174156,141.003571 92.971245,141.009247 
	C92.971245,141.009247 92.998619,140.995407 92.984344,140.703812 
	C92.637901,139.939926 92.305748,139.467621 91.973595,138.995331 
	C91.973595,138.995331 92.005013,138.996704 92.004166,138.667603 
	C91.660645,137.557556 91.317978,136.776642 90.975311,135.995712 
	C90.975311,135.995712 91.004036,135.996948 91.009735,135.544922 
	C91.007690,131.054214 90.999939,127.015549 90.992188,122.976883 
	C90.992188,122.976883 91.004417,123.002808 91.272736,122.777649 
	C91.692802,121.359009 91.844551,120.165520 91.996300,118.972031 
	C91.996300,118.972031 92.007072,119.004837 92.254387,118.851959 
	C92.665314,118.124634 92.828934,117.550194 92.992546,116.975754 
	C92.992546,116.975754 93.003784,117.001793 93.225502,116.905685 
	C93.631126,116.531410 93.815033,116.253242 93.998947,115.975067 
	C93.998940,115.975067 94.004539,116.004738 94.243065,115.838013 
	C94.652061,115.105721 94.822533,114.540138 94.993011,113.974556 
	C94.993004,113.974556 95.004799,114.002777 95.248756,113.843315 
	C95.658600,113.115250 95.824486,112.546638 95.990372,111.978035 
	C95.990372,111.978035 96.003342,111.999718 96.249603,111.876266 
	C96.661392,111.413925 96.826912,111.075043 96.992432,110.736153 
	C97.823006,109.612732 98.653572,108.489311 99.741562,107.197144 
	C100.369736,108.621666 100.740494,110.214951 101.169449,112.256424 
z"/>
<path fill="#B9BABE" opacity="1.000000" stroke="none" 
	d="
M114.066727,110.067673 
	C113.144028,109.539131 112.221329,109.010582 111.142975,108.203415 
	C117.253189,107.426773 123.516220,106.886940 129.787033,106.462067 
	C131.235611,106.363914 132.710861,106.659096 134.591278,106.646317 
	C136.053314,107.362541 137.097885,108.205727 138.277924,109.356445 
	C133.887573,109.793488 129.361786,109.922989 123.924225,110.071571 
	C120.030533,110.082993 117.048630,110.075333 114.066727,110.067673 
z"/>
<path fill="#B3695E" opacity="1.000000" stroke="none" 
	d="
M147.986908,143.996567 
	C149.319916,145.122726 150.758469,146.179840 151.918488,147.484589 
	C152.068405,147.653214 150.442474,149.922791 150.207886,149.826965 
	C148.617340,149.177231 147.179611,148.153397 145.396240,147.033890 
	C145.441650,146.326340 145.783340,145.835358 146.633057,145.127380 
	C147.430588,144.594315 147.720108,144.278259 148.009644,143.962219 
	C148.009628,143.962204 148.006165,144.004227 147.986908,143.996567 
z"/>
<path fill="#8C989E" opacity="1.000000" stroke="none" 
	d="
M90.689758,123.261978 
	C90.999939,127.015549 91.007690,131.054214 91.003937,135.558044 
	C90.790741,131.864487 90.589043,127.705780 90.689758,123.261978 
z"/>
<path fill="#8C989E" opacity="1.000000" stroke="none" 
	d="
M92.966293,141.349854 
	C93.174156,141.003571 93.377068,140.997910 93.885559,140.997650 
	C94.433029,141.823410 94.674911,142.643784 94.823280,143.796829 
	C94.140297,143.316498 93.550819,142.503479 92.966293,141.349854 
z"/>
<path fill="#8C989E" opacity="1.000000" stroke="none" 
	d="
M91.721596,119.206451 
	C91.844551,120.165520 91.692802,121.359009 91.258446,122.778900 
	C91.132858,121.817154 91.289879,120.629013 91.721596,119.206451 
z"/>
<path fill="#8C989E" opacity="1.000000" stroke="none" 
	d="
M90.968231,136.338821 
	C91.317978,136.776642 91.660645,137.557556 91.998352,138.682190 
	C91.649315,138.244583 91.305237,137.463257 90.968231,136.338821 
z"/>
<path fill="#8C989E" opacity="1.000000" stroke="none" 
	d="
M91.984962,139.301559 
	C92.305748,139.467621 92.637901,139.939926 92.981339,140.718750 
	C92.660515,140.552780 92.328423,140.080292 91.984962,139.301559 
z"/>
<path fill="#8C989E" opacity="1.000000" stroke="none" 
	d="
M92.737930,117.139587 
	C92.828934,117.550194 92.665314,118.124634 92.237213,118.853760 
	C92.142914,118.440094 92.313110,117.871758 92.737930,117.139587 
z"/>
<path fill="#8C989E" opacity="1.000000" stroke="none" 
	d="
M94.725456,114.125648 
	C94.822533,114.540138 94.652061,115.105721 94.228012,115.836792 
	C94.135597,115.427109 94.296745,114.851921 94.725456,114.125648 
z"/>
<path fill="#8C989E" opacity="1.000000" stroke="none" 
	d="
M95.729721,112.135201 
	C95.824486,112.546638 95.658600,113.115250 95.233467,113.843796 
	C95.139168,113.433281 95.304115,112.862823 95.729721,112.135201 
z"/>
<path fill="#F1C7AF" opacity="1.000000" stroke="none" 
	d="
M147.681015,144.003632 
	C147.720108,144.278259 147.430588,144.594315 146.803009,144.969513 
	C146.760773,144.700775 147.056580,144.372910 147.681015,144.003632 
z"/>
<path fill="#8C989E" opacity="1.000000" stroke="none" 
	d="
M93.754730,116.058037 
	C93.815033,116.253242 93.631126,116.531410 93.211365,116.904816 
	C93.153839,116.713699 93.332176,116.427353 93.754730,116.058037 
z"/>
<path fill="#8C989E" opacity="1.000000" stroke="none" 
	d="
M96.770821,110.903740 
	C96.826912,111.075043 96.661392,111.413925 96.237091,111.875626 
	C96.168617,111.689407 96.358910,111.380363 96.770821,110.903740 
z"/>
<path fill="#B76D60" opacity="1.000000" stroke="none" 
	d="
M173.924377,131.947586 
	C179.411072,131.268143 184.459427,130.619705 189.507797,129.971283 
	C189.592896,130.734116 189.678009,131.496964 189.763123,132.259796 
	C181.691696,133.238373 173.620270,134.216934 165.548859,135.195511 
	C165.438660,134.567230 165.328461,133.938934 165.218277,133.310654 
	C167.974213,132.866638 170.730133,132.422623 173.924377,131.947586 
z"/>
<path fill="#B97062" opacity="1.000000" stroke="none" 
	d="
M144.364487,157.779587 
	C143.478882,156.553467 142.867828,155.565186 142.256790,154.576904 
	C142.410492,154.099152 142.564178,153.621384 142.717880,153.143616 
	C147.179764,158.226898 151.404831,158.954865 155.309448,152.838028 
	C155.217834,159.192673 150.455811,161.170532 144.364487,157.779587 
z"/>
<path fill="#8DC13D" opacity="1.000000" stroke="none" 
	d="
M177.025620,220.968903 
	C172.419113,217.931519 167.931244,215.314682 163.933945,212.089767 
	C162.530273,210.957306 162.330566,208.332504 161.581116,206.389114 
	C163.807159,206.257523 166.606781,205.191757 168.164703,206.148331 
	C177.226944,211.712570 186.042725,217.685196 194.847321,223.659088 
	C199.205399,226.616043 199.143967,229.084641 194.750839,232.023483 
	C186.182861,237.755096 177.532425,243.363312 168.940521,249.059433 
	C166.494476,250.681061 163.889648,252.643173 161.716019,249.130722 
	C159.489380,245.532608 162.814713,244.174942 165.087997,242.642700 
	C172.097595,237.918091 179.148849,233.255234 187.097748,227.959595 
	C183.409866,225.386719 180.373596,223.268433 177.025620,220.968903 
z"/>
<path fill="#8DC13D" opacity="1.000000" stroke="none" 
	d="
M127.800812,238.200195 
	C130.997787,240.347687 134.129578,242.039093 136.677597,244.368973 
	C137.749466,245.349091 137.587875,247.678177 137.987015,249.394043 
	C136.220322,249.711533 133.901642,250.912582 132.773575,250.207855 
	C123.051956,244.134445 113.461685,237.838455 104.018616,231.338120 
	C100.637749,229.010834 101.021683,226.161575 104.553711,223.813812 
	C113.272675,218.018234 122.043221,212.300201 130.755005,206.493942 
	C133.215393,204.854111 135.692535,202.964767 137.943527,206.466431 
	C140.361298,210.227493 136.807480,211.408112 134.640533,212.887283 
	C127.512680,217.752869 120.288406,222.477203 112.332733,227.766708 
	C117.733826,231.411621 122.616791,234.706863 127.800812,238.200195 
z"/>
<path fill="#E3F3F9" opacity="1.000000" stroke="none" 
	d="
M113.999588,110.396469 
	C117.048630,110.075333 120.030533,110.082993 123.454239,110.122665 
	C126.980461,114.551086 131.009064,118.572845 132.935745,123.428604 
	C136.102844,131.410553 135.283463,139.793320 130.769470,147.276611 
	C124.301033,157.999969 112.768715,157.560593 106.761589,146.431046 
	C101.444244,136.579468 100.551468,121.294365 113.999588,110.396469 
M126.499969,147.880798 
	C130.397125,141.357208 130.692429,134.701233 126.988831,128.034790 
	C125.208145,124.829567 122.514694,121.834282 118.673637,123.098923 
	C115.678734,124.084953 111.624039,126.428284 110.956421,128.942703 
	C109.616013,133.991119 109.132660,139.845245 110.356049,144.864639 
	C112.334816,152.983261 119.992912,154.365845 126.499969,147.880798 
z"/>
<path fill="#F5F4F2" opacity="1.000000" stroke="none" 
	d="
M139.403061,119.822144 
	C139.867813,119.101364 140.480026,118.724060 141.092255,118.346771 
	C143.328369,124.054771 145.514679,129.766678 142.853104,135.625275 
	C141.775284,130.579941 140.662903,125.372787 139.403061,119.822144 
z"/>
<path fill="#BEA8AA" opacity="1.000000" stroke="none" 
	d="
M126.266602,148.183807 
	C119.992912,154.365845 112.334816,152.983261 110.356049,144.864639 
	C109.132660,139.845245 109.616013,133.991119 110.956421,128.942703 
	C111.624039,126.428284 115.678734,124.084953 118.673637,123.098923 
	C122.514694,121.834282 125.208145,124.829567 126.988831,128.034790 
	C130.692429,134.701233 130.397125,141.357208 126.266602,148.183807 
z"/>
</svg>